<svg xmlns="http://www.w3.org/2000/svg" viewBox="0 0 1024.25 466.58"><defs><style>.cls-1,.cls-2,.cls-4{fill:#00a79d;}.cls-1{stroke:#00a79d;stroke-width:0.5px;}.cls-3{fill:#f2bb1b;}.cls-3,.cls-4,.cls-5{fill-rule:evenodd;}.cls-5{fill:#fff;}</style></defs><title>Porte Token Logo</title><g id="Layer_3" data-name="Layer 3"><path class="cls-1" d="M-8.78,155.69q0,46.41-32.58,79t-79,32.59H-194.4V248.5h74.06q38,0,65.41-27.4t27.39-65.41q0-38-27.39-65.41t-65.41-27.4q-38,0-65.41,27.4t-27.41,65.41V359.57h-18.75V155.69q0-45.91,32.83-78.74t78.74-32.83q45.9,0,78.73,32.83T-8.78,155.69Z" transform="translate(232.16 -43.87)"/><path class="cls-2" d="M260.65,256.76v-.23q0-43.26,30.91-74.3t74.65-31a111.71,111.71,0,0,1,26.32,3.21v27.7a77.77,77.77,0,0,0-26.32-4.58q-33,0-56.1,23.24T287,256.53V362.08H260.65Z" transform="translate(232.16 -43.87)"/><path class="cls-2" d="M442.68,45.66V151.21h81.73v26.33H442.68v80.83q0,32.75,23.12,56t56.1,23.24h35V363.7h-35q-43.51,0-74.52-30.69t-31-73.95V45.66Z" transform="translate(232.16 -43.87)"/><path class="cls-2" d="M765.75,282.86H612.11a79.36,79.36,0,0,0,28.51,38,78.71,78.71,0,0,0,78.76,7.78,81.27,81.27,0,0,0,26.23-19.23h32.28A106.77,106.77,0,0,1,740,347.55a101.35,101.35,0,0,1-53.24,14.53q-43.74,0-74.65-30.9T581.2,256.53q0-43.26,30.91-74.3t74.65-31q43.28,0,74.3,31t31,74.3a108.42,108.42,0,0,1-3.21,26.33ZM607.54,256.53H765.75v0q0-32.5-23.24-55.75t-55.75-23.24q-33,0-56.1,23.24T607.54,256.53Z" transform="translate(232.16 -43.87)"/><path class="cls-2" d="M-120,474.76v34.43h-10.14V474.76h-4.33V465.3h4.33V449.21H-120V465.3h7.88v9.46Z" transform="translate(232.16 -43.87)"/><path class="cls-2" d="M31.82,486.93a21.82,21.82,0,0,1,6.8-16.18,22.87,22.87,0,0,1,16.59-6.68,22.94,22.94,0,0,1,16.68,6.72,23.5,23.5,0,0,1,0,33A23.25,23.25,0,0,1,55,510.45a22.29,22.29,0,0,1-16.54-6.75A22.81,22.81,0,0,1,31.82,486.93Zm10.37.19c0,4.37,1.17,7.85,3.51,10.39a12.39,12.39,0,0,0,9.51,3.89,12.34,12.34,0,0,0,9.51-3.84c2.38-2.54,3.56-6,3.56-10.23s-1.18-7.68-3.56-10.22a12.36,12.36,0,0,0-9.51-3.89,12.26,12.26,0,0,0-9.42,3.89A14.1,14.1,0,0,0,42.19,487.12Z" transform="translate(232.16 -43.87)"/><path class="cls-2" d="M238,433.07V479.5l14.29-14.2h13.61l-19.07,18.42,20.47,25.47H254.12L239.6,490.66,238,492.28v16.91H227.84V433.07Z" transform="translate(232.16 -43.87)"/><path class="cls-2" d="M450.78,489.64H419.31a13.35,13.35,0,0,0,3.52,8.6,10.69,10.69,0,0,0,8,3.16,10.25,10.25,0,0,0,6.26-1.82q2.44-1.79,5.54-6.66l8.57,4.79a34.2,34.2,0,0,1-4.19,5.78,22.73,22.73,0,0,1-4.74,4,19.2,19.2,0,0,1-5.44,2.28,27.29,27.29,0,0,1-6.36.71q-9.84,0-15.78-6.3t-5.95-16.86q0-10.41,5.77-16.86t15.42-6.36q9.68,0,15.33,6.19c3.71,4.07,5.58,9.75,5.58,17Zm-10.42-8.31q-2.12-8.1-10.23-8.11a10.05,10.05,0,0,0-3.46.58,9.87,9.87,0,0,0-3,1.62,10.22,10.22,0,0,0-2.26,2.54,11.41,11.41,0,0,0-1.45,3.37Z" transform="translate(232.16 -43.87)"/><path class="cls-2" d="M600.33,465.3h10.18v4.06a16.61,16.61,0,0,1,12-5.29c5.11,0,9.09,1.62,12,4.82q3.69,4.13,3.69,13.4v26.9H628v-24.5c0-4.34-.61-7.33-1.81-9s-3.3-2.52-6.4-2.52q-5,0-7.17,3.33T610.51,488v21.18H600.33Z" transform="translate(232.16 -43.87)"/><path class="cls-3" d="M128.5,136.9c-1.37-1.09-3.45-.21-5.37-.19-6.85.06-8.88-5.56-12.61-9.58a16.82,16.82,0,0,1,6.49-.57C123.18,127,126.62,132.06,128.5,136.9Z" transform="translate(232.16 -43.87)"/><path class="cls-3" d="M129.46,127.7c10.35-.78,14.42,4.73,16.47,12.26-3.09-1.12-7.7-.63-10.15-2.68a19.58,19.58,0,0,1-3.26-4.4A26.82,26.82,0,0,1,129.46,127.7Z" transform="translate(232.16 -43.87)"/><path class="cls-3" d="M110.9,136.51c-2.89-.94-7,1.69-10.53,0-2.21-1.06-5-3.56-6.89-5.36-.66-.61-1.52-1.35-1.53-2.1,3-.68,5.93-1.62,9.19-1.15,2.18.31,4.13,2,5.74,3.44S110.63,134.54,110.9,136.51Z" transform="translate(232.16 -43.87)"/><path class="cls-3" d="M148,131.15c9.17.53,13.42,5.66,14.56,14.37-.91.13-1.44-.68-2.29-1-2.41-.77-4.91-.73-6.71-2.3C151.18,140.16,149.27,134.59,148,131.15Z" transform="translate(232.16 -43.87)"/><path class="cls-3" d="M93.28,138.43c-.31-.32-1.12-.15-1.72-.19-2.72,1-5.16,2.62-8.43,1.72a22.77,22.77,0,0,1-5.36-2.68,27.23,27.23,0,0,1-4.41-3.44c3.09-1.1,6.15-2.86,9.77-2.5,3.17.32,6.47,2.9,8.43,4.8C92.29,136.84,93.5,137.44,93.28,138.43Z" transform="translate(232.16 -43.87)"/><path class="cls-3" d="M76.43,142.45c-3.44.3-4.79,3.09-8.62,3.26-4.41.19-8-2.68-11.88-4.4,2.77-1.87,6.18-4.37,10.35-4S74,140.31,76.43,142.45Z" transform="translate(232.16 -43.87)"/><path class="cls-3" d="M166,137.28c8,1.87,12.57,6.15,12.32,16.48-.87-.26-1.19-1-1.91-1.34-1.5-.78-3.3-.87-4.63-1.73C168.11,148.29,167.19,142.81,166,137.28Z" transform="translate(232.16 -43.87)"/><path class="cls-3" d="M60,149.35c.06.7-1,.26-1.34.57-2.47,1.64-4.39,4.12-8,4.22s-7.52-2-10.92-2.68c2.47-2.55,6-6,11.11-5.56A18.54,18.54,0,0,1,60,149.35Z" transform="translate(232.16 -43.87)"/><path class="cls-3" d="M183,145.9c2.43,1.14,6.39,3.13,8,5.36,2.2,3,2.28,7.39,1.73,12.65-.75,0-1.09-1.08-1.73-1.54-.91-.65-2.16-.92-3.06-1.53-3.92-2.62-4.72-7.1-5-14.36Z" transform="translate(232.16 -43.87)"/><path class="cls-3" d="M45,158.54c-3.7,2-4.85,6-10.53,6.14a40.23,40.23,0,0,1-9-1.34c-.6-.31.36-1,.77-1.54,1.21-1.48,4-4.19,6.13-5C36.54,155.26,41.85,157,45,158.54Z" transform="translate(232.16 -43.87)"/><path class="cls-3" d="M198.28,157c.17,0,.18.08.19.19,4,2.3,8,5.73,8.05,11.88a18.28,18.28,0,0,1-1.34,7.28c-1-2.29-3-2.64-4.6-4.21C197.4,169,197.49,163.12,198.28,157Z" transform="translate(232.16 -43.87)"/><path class="cls-3" d="M31.41,169.85c-.25.63-1.3.88-1.72,1.34-.67.71-.91,1.88-1.53,2.68C25,178,19.84,178,12.45,177.51a19.37,19.37,0,0,1,2.87-4.22c1-1.16,2.28-2.77,3.64-3.44C22.21,168.23,27.76,168.64,31.41,169.85Z" transform="translate(232.16 -43.87)"/><path class="cls-3" d="M211.89,170.23c1.62,1.36,6.08,5.37,6.5,8.43a19.62,19.62,0,0,1-.95,8.24c-.4,1.37-.61,2.9-1.72,3.44-.91-3.36-4.7-4.55-5.37-8.23C209.73,178.68,211.14,173.85,211.89,170.23Z" transform="translate(232.16 -43.87)"/><path class="cls-3" d="M19.73,182.87c0,.79-1.08,1.22-1.53,1.92-1.34,2-1.67,4.27-3.65,5.74-3,2.25-7.15,1.91-12.45,2.88a17.21,17.21,0,0,1,2.3-4.79,14.27,14.27,0,0,1,3.07-3.83C10.35,182.75,14.79,182.55,19.73,182.87Z" transform="translate(232.16 -43.87)"/><path class="cls-3" d="M223.57,185.17c1.81,2.28,4.73,5.14,5.17,8.81.54,4.51-2.21,9.16-4,11.69-.55-3.06-3.7-4.8-4.22-8C219.75,192.87,222.54,189.08,223.57,185.17Z" transform="translate(232.16 -43.87)"/><path class="cls-3" d="M10,197.62c-.18.8-1.07,1.17-1.34,1.73-.7,1.38-.58,2.85-1.15,4-2.22,4.57-7.34,5.48-13.6,7.09C-4.73,202.21.24,197.54,10,197.62Z" transform="translate(232.16 -43.87)"/><path class="cls-3" d="M232.76,201.64c.17,0,.18.08.19.19,1.59,2.94,3.92,6.2,3.45,10.35-.22,2-1.36,3.86-2.3,5.56s-1.82,3.72-3.45,4.21c-.11-3.95-3.16-5.09-2.68-9.77C228.4,208.1,231.26,204.83,232.76,201.64Z" transform="translate(232.16 -43.87)"/><path class="cls-3" d="M2.49,213.71c-1.7,3.19-1.26,7-3.45,9.39-2.5,2.73-6.92,3.88-10.54,5.55.57-4.14,1-8,3.26-10.34S-1.68,214.25,2.49,213.71Z" transform="translate(232.16 -43.87)"/><path class="cls-3" d="M239.66,219.46c1.21,3,2.71,6.11,2.3,9.76-.51,4.45-4.61,7.87-7.09,10.16-.36-3.87-2.19-6-1.73-9.39S237.76,221.88,239.66,219.46Z" transform="translate(232.16 -43.87)"/><path class="cls-3" d="M-2.87,230.57c.94.2-.52.91-.39,1.53,1,9.77-5.79,11.7-10.92,15.32-.26-3.69-.29-7.11,1-9.76C-11.88,234.82-6.37,231.36-2.87,230.57Z" transform="translate(232.16 -43.87)"/><path class="cls-3" d="M235.83,256.8c-.06-.75.44-1,.38-1.71-3.26-8.72,3.46-13.25,7.47-17.24.16,0,.18.07.19.19.56,3.42,1.74,7.15.58,10.34S239,255.45,235.83,256.8Z" transform="translate(232.16 -43.87)"/><path class="cls-3" d="M-5.37,248c.63.37,0,1.19,0,2.3,0,2.56.79,4.71,0,6.88-1.33,3.7-5.92,6.61-8.81,9-.6-3.66-1.16-7.28-.19-9.95,1.1-3,6.13-6.86,8.81-8.23Z" transform="translate(232.16 -43.87)"/><path class="cls-3" d="M245,256.8c.17,0,.18.08.19.19.71,5.37,0,9.58-2.29,12.26a18.89,18.89,0,0,1-8.24,5.18c1-2.69-.05-6.91,1.15-9.39C237.46,261.64,242,259.26,245,256.8Z" transform="translate(232.16 -43.87)"/><path class="cls-3" d="M-5.37,265.61H-5c-.1.54-.28,1-.39,1.54.63,2.86,1.94,5.23,1,8.42-1,3.36-5,7.13-7.28,9.39-.79-3-2-6-1.53-9.39.65-4.5,5-7.68,7.66-10Z" transform="translate(232.16 -43.87)"/><path class="cls-3" d="M230.85,291.66c1.34-2.66,1-7.09,2.68-9.38,1.82-2.47,6.65-4.67,10.15-6.52.18,2.71-.51,7.53-1.72,9.58C240.06,288.55,235.24,290.83,230.85,291.66Z" transform="translate(232.16 -43.87)"/><path class="cls-3" d="M-2.68,283c.45,3.61,2.69,5.7,2.3,9.39-.47,4.37-3.93,7.55-5.56,10.73-1.66-2.91-3.44-6.31-3.07-10C-8.67,290-5,284.45-2.68,283Z" transform="translate(232.16 -43.87)"/><path class="cls-3" d="M239.28,294.16h.38c-.89,8.85-5.86,13.25-15.13,14,.19-.79.86-1.22,1.14-1.92,1-2.45.81-4.81,2.49-6.7,2.69-3,7-3.49,10.93-5.36Z" transform="translate(232.16 -43.87)"/><path class="cls-3" d="M2.1,320.4c-1.69-2.68-4.89-5.77-4.4-10.73.34-3.46,2.89-8.27,4.79-9.77.4.31.07,1.34.38,1.73,1.66,2.63,3.48,4.76,3.07,8.62C5.54,314,3.07,317.53,2.1,320.4Z" transform="translate(232.16 -43.87)"/><path class="cls-3" d="M232.57,312c.5.17-.08,1.56-.38,2.3-.79,1.9-2.28,4.91-3.83,6.32-2.82,2.55-7.5,3.18-12.45,2.87,2.32-2.37,2.29-5.26,4.21-7.28C222.62,313.56,227.62,313,232.57,312Z" transform="translate(232.16 -43.87)"/><path class="cls-3" d="M10,315.8c.35.35.25,1.15.58,1.53,1.35,2.12,3.77,3.65,4.21,6.71.61,4.24-1.43,8.28-2.11,11.88-1.11-.1-2.05-1.69-3.07-3.07S7,329.67,6.7,327.48C6.23,324.19,7.94,317.59,10,315.8Z" transform="translate(232.16 -43.87)"/><path class="cls-3" d="M223.57,328.44c-2.07,4.81-5.37,9.1-11.68,9.57a17.73,17.73,0,0,1-6.71-.57c.57-.68,1.21-1,1.73-1.72,1.2-1.6,1.73-3.68,3.44-5C213.48,328.37,218,328.7,223.57,328.44Z" transform="translate(232.16 -43.87)"/><path class="cls-3" d="M19.73,330.55c.84,2.59,3.7,3.33,5.17,5.75,2.19,3.6.78,8.9.38,13.79-1.26,0-2.29-1.52-3.45-2.69s-3-2.71-3.63-4.59C17.17,339.83,17.87,333,19.73,330.55Z" transform="translate(232.16 -43.87)"/><path class="cls-3" d="M212.08,343.38c-2.4,3.42-5.42,7.63-11.11,7.86a20.68,20.68,0,0,1-8.43-1.53c.27-.68,1.16-.76,1.72-1.16,1.13-1.38,1.8-2.88,3.26-4C201,341.84,207,342.84,212.08,343.38Z" transform="translate(232.16 -43.87)"/><path class="cls-3" d="M31.41,343.77s.18,0,.19,0c1.36,2.3,3.95,2.73,5.75,4.78,2.89,3.29,2.16,7.63,2.49,14-2.59-1.58-6.14-3.21-7.85-6.13C30.17,353.32,30.27,347.82,31.41,343.77Z" transform="translate(232.16 -43.87)"/><path class="cls-3" d="M198.28,356.6c-2.44,2.62-5.89,6.62-11.87,6.13a21.09,21.09,0,0,1-4.6-1.15c-1.44-.46-3.15-.65-3.64-1.92,3.42-.91,4.65-4.45,8.24-5C191.09,354,194.17,355.75,198.28,356.6Z" transform="translate(232.16 -43.87)"/><path class="cls-3" d="M44.82,354.87c.58.15,1.1,1.14,1.73,1.54,1.06.68,2.41.75,3.44,1.34,4.55,2.59,4.78,7.43,5.75,14.56-2.86-1.43-6.93-2.69-8.81-5.37C45.25,364.55,44.2,359,44.82,354.87Z" transform="translate(232.16 -43.87)"/><path class="cls-3" d="M60,364.08c2.43,2,6.49,1.64,9,4.59s2.79,6.46,4.4,10.92C64.72,378.59,60.19,373.48,60,364.08Z" transform="translate(232.16 -43.87)"/><path class="cls-3" d="M183,367.52c-2.67,1.78-5.68,5.14-10.56,4.79-3.8-.27-8.05-2.28-10-4.6a3.4,3.4,0,0,0,1.53-.19c2.58-1.66,4.71-3.68,8.47-3.44C176.32,364.31,179.93,366.51,183,367.52Z" transform="translate(232.16 -43.87)"/><path class="cls-3" d="M76.23,371c2.94,1.53,7.36,1.17,9.78,3.44a19.68,19.68,0,0,1,3.25,4.8,22.62,22.62,0,0,1,2.3,5.36c-4-.65-7.54-.74-10-2.69S77,375.4,76.23,371.55Z" transform="translate(232.16 -43.87)"/><path class="cls-3" d="M166,376.33c-2.69,1.47-5.65,3.43-9.19,3.45-2.34,0-4.58-1.17-6.52-2.3s-4-2.31-4.59-4c3.45.24,5.38-2.74,9.57-2.3C159.35,371.58,162.83,374.8,166,376.33Z" transform="translate(232.16 -43.87)"/><path class="cls-3" d="M93.28,375.38c.59,0,.86.41,1.35.57,4.17-.22,7.21.12,9.38,1.91,2.68,2.2,4.82,6,6.32,8.63-9.69,1.72-14.66-3.76-17-10.35C93.2,375.91,93.35,375.61,93.28,375.38Z" transform="translate(232.16 -43.87)"/><path class="cls-3" d="M148,382.66c-3,.87-5.95,2.23-9.19,1.91-2.29-.23-4.4-1.72-6.13-3.07s-3.7-3-4.21-4.79c3.54.47,5.63-1.6,9-1.14,2.21.3,4.07,1.85,5.75,3.06S147,381.09,148,382.66Z" transform="translate(232.16 -43.87)"/><path class="cls-3" d="M129.46,385.91c-3.33.53-7.16,1.47-10.16.39a14.4,14.4,0,0,1-5-3.84c-1.51-1.62-3.07-3.34-3.44-5.17,2.71.86,6.71-1,9.55.19C124.2,379,126.78,383.05,129.46,385.91Z" transform="translate(232.16 -43.87)"/><path class="cls-4" d="M109.57,142.07c37.41-1.78,65.13,13.1,84.31,30.65A106.14,106.14,0,0,1,207.29,188a115.05,115.05,0,0,1,22.79,63.22,111.25,111.25,0,0,1-8.24,48.83,114.43,114.43,0,0,1-22.41,35.06,110.6,110.6,0,0,1-33,24.51A115.68,115.68,0,0,1,121,371.55c-36.7,2.15-65.14-13.29-84-30.47A108.15,108.15,0,0,1,23.37,326,113.17,113.17,0,0,1,.57,262.74a115.43,115.43,0,0,1,8-49A109.14,109.14,0,0,1,31,178.66c15.76-16.8,36.65-30.55,65.32-35.25A117.51,117.51,0,0,1,109.57,142.07ZM65.7,156.63A111.82,111.82,0,0,0,46.36,344.72c17.58,13.67,42.5,25.26,73.9,23.57,34.45-1.86,58.73-16.35,76.49-35.06A111.23,111.23,0,0,0,226.83,252a114.46,114.46,0,0,0-11.31-44.44,102.54,102.54,0,0,0-23.75-32.18c-18.64-17.11-45.35-31.8-81.63-30.07A109.43,109.43,0,0,0,65.7,156.63Z" transform="translate(232.16 -43.87)"/><path class="cls-4" d="M228.65,257.09A114.48,114.48,0,1,1,114.17,142.6,114.5,114.5,0,0,1,228.65,257.09Z" transform="translate(232.16 -43.87)"/><path class="cls-5" d="M122,201.41v13.3c7.1,1.33,17.29-.44,24.39.89v2.21c-1.15,1.67-3.8.86-5.76.89-5.61.09-12.64-.07-18.63,0v4.44c7.1,1.32,17.29-.44,24.39.88v2.22c-1,1.67-3.56.85-5.32.88-5.61.12-12.64-.08-18.63,0-1,29-.14,59.87-.44,89.58,15.7-.41,24.33-7.9,32.81-15.52-3.17-2.15-7.59-3-11.08-4.88,12.37-4.19,18.7-14.41,25.72-23.94,3.71,9.45,6.12,22.87,4,35.47a14.69,14.69,0,0,1-7.1-2.66c-3.08,6.26-10.82,8.77-17.73,12.42-13.89,7.32-23.65,18.82-32.81,31-10.08-11.54-19-22.9-32.82-30.6-6.46-3.59-14.45-5.75-18.18-12.42-2.83.28-4.17,2-7.1,2.22-3.25-11.67.4-25.21,3.11-35,8.51,8.05,12.59,20.51,26.6,23.06-3.13,2.19-7.57,3.06-11.08,4.88a43.18,43.18,0,0,0,31.93,16c1-29,.15-59.86.44-89.58-7.69-.29-16.55.6-23.5-.44v-2.22c1-1.67,3.57-.85,5.32-.88,5.47-.11,12.33.09,18.18,0v-4.44c-6.8-1.33-16.7.45-23.5-.88V216c1-1.67,3.57-.85,5.32-.89,5.47-.11,12.33.09,18.18,0v-13.3c-7.26-4.33-12.81-8.25-13.31-17.74a20,20,0,0,1,18.19-21.28c16.55-1.26,29.43,19.46,16.85,33.26C128.2,198.54,125.72,199.67,122,201.41Zm-12.86-30.15c-10.85,5.14-7.51,24.85,6.66,24.38,7.62-.25,15.8-8,11.53-18.18-1.7-4-7-7.36-12.42-7.09C112.22,170.5,110.78,170.48,109.15,171.26Z" transform="translate(232.16 -43.87)"/></g></svg>